<?xml version="1.0" standalone="no"?>
<!DOCTYPE svg PUBLIC "-//W3C//DTD SVG 20010904//EN"
 "http://www.w3.org/TR/2001/REC-SVG-20010904/DTD/svg10.dtd">
<svg version="1.0" xmlns="http://www.w3.org/2000/svg"
 width="500.000000pt" height="500.000000pt" viewBox="0 0 500.000000 500.000000"
 preserveAspectRatio="xMidYMid meet">

<g transform="translate(0.000000,500.000000) scale(0.100000,-0.100000)"
fill="#000000" stroke="none">
<path d="M0 2500 l0 -2500 2500 0 2500 0 0 2500 0 2500 -2500 0 -2500 0 0
-2500z m3252 2109 c54 -29 220 -165 234 -191 9 -17 49 -77 90 -134 113 -156
208 -378 191 -446 -4 -13 -67 -83 -141 -156 -151 -148 -201 -179 -341 -208
-141 -29 -159 -47 -182 -181 -8 -48 -27 -119 -42 -158 -16 -38 -41 -110 -56
-160 -15 -49 -40 -120 -56 -157 -35 -80 -38 -146 -10 -263 11 -44 24 -112 30
-151 6 -39 17 -86 25 -105 7 -19 17 -44 20 -56 l7 -23 -435 0 c-240 0 -436 2
-436 5 0 3 16 44 35 92 19 48 35 101 35 117 0 17 7 56 15 86 8 30 15 86 15
123 0 76 -18 119 -98 241 l-46 69 -35 -44 c-78 -98 -140 -146 -275 -214 -111
-55 -139 -65 -183 -65 -79 0 -99 14 -138 94 -18 39 -39 91 -46 116 -27 100 -9
448 27 541 28 69 143 259 158 259 7 0 39 -11 69 -25 40 -17 61 -34 72 -56 17
-31 17 -32 -19 -66 -20 -20 -36 -39 -36 -44 0 -4 -20 -20 -45 -35 -62 -36 -75
-58 -75 -124 0 -77 11 -108 68 -195 45 -69 51 -74 57 -53 17 55 39 87 80 118
29 22 46 43 51 64 9 45 49 120 85 160 46 53 127 88 206 91 l67 3 54 56 c49 51
54 60 49 90 -9 54 -46 100 -119 147 -164 105 -188 150 -156 289 9 40 21 59 52
86 89 76 189 102 273 71 34 -13 163 -146 163 -168 0 -7 12 -25 26 -40 15 -15
30 -45 35 -66 4 -21 18 -71 30 -110 l23 -73 -23 -22 c-22 -20 -23 -22 -6 -34
20 -15 102 -34 145 -34 21 0 39 11 67 41 59 65 99 79 230 79 l112 0 45 39 c56
49 104 65 168 58 57 -7 101 8 94 32 -12 39 -26 152 -26 211 0 77 -11 122 -52
211 l-30 67 -61 6 c-180 18 -182 18 -185 51 -2 19 9 55 28 93 29 59 33 62 66
62 19 0 45 -5 56 -11z m428 -2889 c0 -20 -7 -20 -1090 -20 -1083 0 -1090 0
-1090 20 0 20 7 20 1090 20 1083 0 1090 0 1090 -20z m-2589 -540 c18 -10 19
-24 19 -290 l0 -280 134 0 c102 0 136 -3 145 -14 8 -9 11 -45 9 -98 l-3 -83
-255 0 -255 0 -3 375 c-2 344 -1 376 15 388 21 15 166 16 194 2z m552 -2 c16
-12 17 -44 15 -388 l-3 -375 -110 0 -110 0 -3 375 c-2 344 -1 376 15 388 10 7
49 12 98 12 49 0 88 -5 98 -12z m548 2 c16 -9 19 -22 19 -95 0 -73 -3 -86 -19
-95 -11 -5 -74 -10 -140 -10 l-121 0 0 -40 0 -40 73 0 c39 0 78 -4 85 -8 9 -6
12 -33 10 -98 l-3 -89 -82 -3 -82 -3 -3 -142 -3 -142 -110 0 -110 0 -3 375
c-2 344 -1 376 15 388 22 15 444 17 474 2z m530 0 c16 -9 19 -22 19 -95 0 -73
-3 -86 -19 -95 -11 -5 -74 -10 -140 -10 l-121 0 0 -40 0 -40 73 0 c39 0 78 -4
85 -8 9 -6 12 -33 10 -98 l-3 -89 -82 -3 -83 -3 0 -44 0 -45 128 0 c70 0 133
-4 140 -8 9 -6 12 -33 10 -98 l-3 -89 -250 0 -250 0 -3 375 c-2 344 -1 376 15
388 22 15 444 17 474 2z m550 0 c16 -9 19 -22 19 -95 0 -73 -3 -86 -19 -95
-11 -5 -76 -10 -145 -10 l-126 0 0 -40 0 -40 78 0 c47 0 83 -5 90 -12 16 -16
16 -160 0 -176 -7 -7 -43 -12 -90 -12 l-77 0 -3 -142 -3 -143 -104 -3 c-77 -2
-107 1 -113 10 -10 16 -10 729 0 744 4 6 14 14 22 17 28 10 450 7 471 -3z
m237 4 l22 -6 -2 -382 -3 -381 -104 -3 c-77 -2 -107 1 -113 10 -10 16 -10 729
0 744 4 6 14 14 22 17 20 7 150 8 178 1z m600 0 c21 -6 22 -11 22 -99 0 -108
3 -105 -101 -105 l-69 0 -2 -282 -3 -283 -110 0 -110 0 -3 283 -2 282 -66 0
c-99 0 -104 5 -104 105 0 69 3 86 18 94 18 11 490 15 530 5z"/>
<path d="M2797 3473 c-14 -4 -15 -8 -7 -18 8 -10 -2 -24 -42 -60 -112 -98
-279 -196 -386 -224 -44 -12 -63 -34 -44 -53 13 -13 91 12 197 65 96 48 171
98 259 172 37 31 67 51 71 45 12 -20 25 1 25 41 0 36 -2 39 -27 38 -16 -1 -36
-3 -46 -6z"/>
<path d="M2700 3070 l0 -170 70 0 70 0 0 170 0 170 -70 0 -70 0 0 -170z"/>
<path d="M2520 3015 l0 -115 65 0 65 0 0 115 0 115 -65 0 -65 0 0 -115z"/>
<path d="M2330 2980 l0 -80 70 0 70 0 0 80 0 80 -70 0 -70 0 0 -80z"/>
<path d="M910 795 l0 -365 230 0 230 0 0 75 0 74 -142 3 -143 3 -3 288 -2 287
-85 0 -85 0 0 -365z"/>
<path d="M1460 795 l0 -365 85 0 85 0 0 365 0 365 -85 0 -85 0 0 -365z"/>
<path d="M1730 795 l0 -365 85 0 85 0 0 144 c0 165 -6 156 101 156 l69 0 0 70
0 69 -82 3 -83 3 0 65 0 65 143 3 143 3 -3 72 -3 72 -227 3 -228 2 0 -365z"/>
<path d="M2260 795 l0 -365 228 2 227 3 3 72 3 72 -143 3 -143 3 -3 64 c-2 45
1 67 10 72 7 5 46 9 86 9 l72 0 0 70 0 69 -82 3 -83 3 0 65 0 65 143 3 143 3
-3 72 -3 72 -227 3 -228 2 0 -365z"/>
<path d="M2800 795 l0 -365 90 0 89 0 3 148 3 147 83 3 82 3 0 69 0 70 -85 0
-85 0 0 70 0 70 140 0 140 0 0 75 0 75 -230 0 -230 0 0 -365z"/>
<path d="M3330 795 l0 -365 90 0 90 0 -2 363 -3 362 -87 3 -88 3 0 -366z"/>
<path d="M3590 1086 l0 -75 83 -3 82 -3 3 -287 2 -288 85 0 85 0 2 288 3 287
88 3 88 3 -3 72 -3 72 -257 3 -258 2 0 -74z"/>
</g>
</svg>
